<?xml version="1.0" standalone="no"?>
<!DOCTYPE svg >
<svg version="1.0" 
 width="847.000000pt" height="1280.000000pt" viewBox="0 0 847.000000 1280.000000"
 preserveAspectRatio="xMidYMid meet">
<metadata>
Created by potrace 1.15, written by Peter Selinger 2001-2017
</metadata>
<g transform="translate(0.000000,1280.000000) scale(0.100000,-0.100000)"
fill="#000000" stroke="none">
<path d="M3815 11786 c-127 -41 -203 -128 -269 -311 -7 -21 -12 -357 -16
-1070 l-5 -1040 -1097 -6 c-604 -4 -1113 -10 -1131 -13 -48 -9 -116 -85 -147
-161 -13 -33 -27 -64 -31 -70 -26 -35 -30 -150 -27 -700 4 -507 6 -576 21
-622 21 -64 71 -130 117 -158 35 -20 41 -20 1111 -16 1152 4 1129 5 1169 -46
20 -26 20 -33 20 -3112 0 -1966 4 -3111 10 -3154 17 -118 78 -205 178 -254
l57 -28 585 0 585 0 50 23 c27 12 52 26 55 30 3 5 21 18 41 30 51 31 117 105
142 160 l22 47 5 3147 c3 1730 8 3149 11 3152 3 3 500 9 1105 13 l1099 8 55
37 c74 49 104 82 137 153 l28 60 0 630 c0 479 -3 640 -13 672 -17 56 -70 133
-111 160 l-34 23 -1138 0 -1139 0 -2 1093 -3 1092 -25 50 c-31 64 -101 134
-165 165 l-50 25 -580 2 c-449 2 -589 -1 -620 -11z"/>
</g>
</svg>
